<svg width="105" height="105" viewBox="0 0 105 105" fill="none" xmlns="http://www.w3.org/2000/svg">
<path fill-rule="evenodd" clip-rule="evenodd" d="M57.8431 2.02806C54.5982 -0.676025 49.8847 -0.676018 46.6398 2.02807L35.8838 10.9915L19.7415 10.9915C14.909 10.9915 10.9915 14.909 10.9915 19.7415L10.9915 35.8838L2.02807 46.6398C-0.676019 49.8847 -0.676024 54.5982 2.02806 57.8431L10.9915 68.5992L10.9915 84.7415C10.9915 89.574 14.909 93.4915 19.7415 93.4915L35.8838 93.4915L46.6398 102.455C49.8847 105.159 54.5982 105.159 57.8431 102.455L68.5992 93.4915H84.7415C89.5739 93.4915 93.4915 89.5739 93.4915 84.7415L93.4914 68.5991L102.455 57.8431C105.159 54.5982 105.159 49.8847 102.455 46.6398L93.4914 35.8838L93.4915 19.7415C93.4915 14.909 89.574 10.9915 84.7415 10.9915L68.5992 10.9915L57.8431 2.02806ZM69.5514 44.1759C72.0006 42.9003 72.9519 39.8808 71.6763 37.4317C70.4008 34.9825 67.3812 34.0312 64.9321 35.3068C57.7923 39.0254 51.9672 46.1442 48.1181 51.7574C47.7849 52.2434 47.463 52.7233 47.1529 53.1947C46.4537 54.2576 45.8144 55.2775 45.24 56.2269C44.8112 55.8639 44.394 55.5288 43.9978 55.2227C43.8711 55.1248 43.7465 55.0299 43.6244 54.9379C42.5479 54.1273 41.5797 53.4884 40.8727 53.0473C40.5177 52.8259 40.2247 52.6518 40.0119 52.5286C39.9054 52.4669 39.8187 52.4177 39.7541 52.3815L39.6739 52.3369L39.6467 52.3219L39.6364 52.3163L39.6283 52.3119C37.2017 50.9939 34.1661 51.8925 32.8481 54.3191C31.5303 56.7451 32.4299 59.7808 34.8553 61.0993L34.8657 61.1052L34.999 61.1814C35.1261 61.255 35.3252 61.3729 35.5796 61.5316C36.0913 61.8509 36.8107 62.3253 37.6092 62.9265C39.2771 64.1824 40.9766 65.759 42.0076 67.4006C42.9762 68.9428 44.7066 69.8364 46.5248 69.7333C48.3424 69.6303 49.9611 68.5459 50.7494 66.905L50.762 66.8791L50.8254 66.7503C50.8843 66.6314 50.9763 66.4479 51.0998 66.2074C51.347 65.726 51.7196 65.0178 52.2059 64.143C53.181 62.3884 54.5993 59.9883 56.3654 57.4127C60.0164 52.0884 64.6912 46.7073 69.5514 44.1759Z" fill="#07BD74"/>
</svg>
