<svg width="73" height="90" viewBox="0 0 73 90" fill="none" xmlns="http://www.w3.org/2000/svg">
<path d="M45.833 82.291C45.8328 86.318 42.568 89.582 38.541 89.582H30.208C26.181 89.582 22.9162 86.318 22.916 82.291V80.208H45.833V82.291ZM34.375 0C38.6976 3.96901e-05 42.8339 0.797394 46.6445 2.25391L46.3184 3.13672C45.5492 5.21545 45.0154 6.53659 44.707 7.20605C44.0377 7.51434 42.716 8.04799 40.6367 8.81738L37.7324 9.89258C34.4623 11.1028 32.291 14.2211 32.291 17.708C32.2911 21.1949 34.4623 24.3133 37.7324 25.5234L40.6367 26.5977C42.716 27.367 44.0377 27.9007 44.707 28.209C45.0153 28.8783 45.549 30.2 46.3184 32.2793L47.3926 35.1836C48.6028 38.4537 51.7211 40.625 55.208 40.625C58.6949 40.625 61.8132 38.4537 63.0234 35.1836L64.0977 32.2793C64.867 30.2 65.4007 28.8783 65.709 28.209C66.1643 27.9993 66.9218 27.6852 68.0137 27.2637C68.4962 29.5579 68.75 31.9373 68.75 34.375C68.7498 47.2993 61.617 58.5579 51.0732 64.4287L50.6162 67.166C49.8628 71.6865 45.952 74.9999 41.3691 75H26.958C22.3752 74.9999 18.4644 71.6865 17.7109 67.166L17.21 64.1641C6.92278 58.2238 0.000167827 47.1078 0 34.375C0 15.3902 15.3902 0 34.375 0ZM55.208 0C56.5156 1.14315e-07 57.6849 0.813704 58.1387 2.04004L59.2139 4.94434C60.7223 9.02067 61.2028 10.1286 61.9951 10.9209C62.7874 11.7132 63.8954 12.1938 67.9717 13.7021L70.876 14.7773C72.1022 15.2312 72.916 16.4005 72.916 17.708C72.916 19.0155 72.1022 20.1849 70.876 20.6387L67.9717 21.7129C63.8952 23.2213 62.7874 23.7028 61.9951 24.4951C61.2029 25.2874 60.7222 26.3954 59.2139 30.4717L58.1387 33.376C57.6848 34.6022 56.5155 35.416 55.208 35.416C53.9005 35.416 52.7312 34.6022 52.2773 33.376L51.2021 30.4717C49.6938 26.3954 49.2132 25.2874 48.4209 24.4951C47.6286 23.7028 46.5208 23.2213 42.4443 21.7129L39.54 20.6387C38.3138 20.1849 37.5001 19.0155 37.5 17.708C37.5 16.4005 38.3138 15.2312 39.54 14.7773L42.4443 13.7021C46.5207 12.1938 47.6286 11.7132 48.4209 10.9209C49.2132 10.1286 49.6938 9.02067 51.2021 4.94434L52.2773 2.04004C52.7312 0.813705 53.9004 6.77473e-07 55.208 0Z" fill="#FACC15"/>
</svg>
