<svg width="22" height="19" viewBox="0 0 22 19" fill="none" xmlns="http://www.w3.org/2000/svg">
<path d="M11.625 10.5C15.4633 10.5 18.5 13.7885 18.5 17.75C18.5 18.1642 18.1642 18.5 17.75 18.5H3.75C3.33579 18.5 3 18.1642 3 17.75C3 13.7885 6.03668 10.5 9.875 10.5H11.625ZM6.30078 9.82812C3.49161 11.2132 1.59397 14.1759 1.50293 17.499H0.719727C0.322223 17.499 0 17.1768 0 16.7793C0.000140822 13.0803 2.75884 9.99269 6.30078 9.82812ZM15.1992 9.82812C18.7412 9.99263 21.4999 13.0803 21.5 16.7793C21.5 17.1768 21.1778 17.499 20.7803 17.499H19.9971C19.906 14.1759 18.0084 11.2132 15.1992 9.82812ZM10.75 0C13.0972 0 15 1.90279 15 4.25C15 6.59721 13.0972 8.5 10.75 8.5C8.40279 8.5 6.5 6.59721 6.5 4.25C6.5 1.90279 8.40279 0 10.75 0ZM5.75879 1.39062C5.27585 2.23234 5.00002 3.20804 5 4.24805C5 5.85148 5.6562 7.30186 6.71484 8.34473C6.65083 8.3482 6.58636 8.3496 6.52148 8.34961C4.57688 8.34961 3.00003 6.7737 3 4.8291C3 3.14621 4.18061 1.73892 5.75879 1.39062ZM15.7412 1.39062C17.3194 1.73892 18.5 3.14621 18.5 4.8291C18.5 6.7737 16.9231 8.34961 14.9785 8.34961C14.9136 8.3496 14.8492 8.3482 14.7852 8.34473C15.8438 7.30186 16.5 5.85148 16.5 4.24805C16.5 3.20804 16.2241 2.23234 15.7412 1.39062Z" fill="white"/>
</svg>
