<svg width="21" height="22" viewBox="0 0 21 22" fill="none" xmlns="http://www.w3.org/2000/svg">
<path d="M13.25 20C13.25 20.9665 12.4665 21.75 11.5 21.75H9.5C8.5335 21.75 7.75 20.9665 7.75 20V19.2578H13.25V20ZM3.29297 16.293C3.68349 15.9024 4.31651 15.9024 4.70703 16.293C5.09755 16.6835 5.09755 17.3165 4.70703 17.707L4.20703 18.207C3.81651 18.5976 3.18349 18.5976 2.79297 18.207C2.40245 17.8165 2.40245 17.1835 2.79297 16.793L3.29297 16.293ZM16.293 16.293C16.6835 15.9024 17.3165 15.9024 17.707 16.293L18.207 16.793C18.5976 17.1835 18.5976 17.8165 18.207 18.207C17.8165 18.5976 17.1835 18.5976 16.793 18.207L16.293 17.707C15.9024 17.3165 15.9024 16.6835 16.293 16.293ZM10.5 3.25C14.5041 3.25 17.75 6.49594 17.75 10.5C17.75 13.1356 16.3467 15.1785 14.3047 16.4082C14.2043 16.4686 14.1549 16.55 14.1416 16.6162L13.8965 17.8428C13.8673 17.9888 13.8199 18.1284 13.7578 18.2578H7.24219C7.18011 18.1284 7.13273 17.9888 7.10352 17.8428L6.8584 16.6162C6.84506 16.55 6.79566 16.4686 6.69531 16.4082C4.65326 15.1785 3.25 13.1356 3.25 10.5C3.25 6.49594 6.49594 3.25 10.5 3.25ZM1.5 9.5C2.05228 9.5 2.5 9.94771 2.5 10.5C2.5 11.0523 2.05228 11.5 1.5 11.5H1C0.447715 11.5 0 11.0523 0 10.5C0 9.94771 0.447715 9.5 1 9.5H1.5ZM20 9.5C20.5523 9.5 21 9.94771 21 10.5C21 11.0523 20.5523 11.5 20 11.5H19.5C18.9477 11.5 18.5 11.0523 18.5 10.5C18.5 9.94771 18.9477 9.5 19.5 9.5H20ZM3.07617 3.07617C3.4667 2.68565 4.09971 2.68565 4.49023 3.07617L4.84375 3.42969C5.23427 3.82021 5.23427 4.45323 4.84375 4.84375C4.45323 5.23427 3.82021 5.23427 3.42969 4.84375L3.07617 4.49023C2.68565 4.09971 2.68566 3.4667 3.07617 3.07617ZM16.5098 3.0752C16.9002 2.68483 17.5333 2.68486 17.9238 3.0752C18.3143 3.46568 18.3142 4.09872 17.9238 4.48926L17.5703 4.84277C17.1798 5.2333 16.5468 5.2333 16.1562 4.84277C15.7659 4.45224 15.7658 3.81919 16.1562 3.42871L16.5098 3.0752ZM10.5 0C11.0523 0 11.5 0.447715 11.5 1V1.5C11.5 2.05228 11.0523 2.5 10.5 2.5C9.94771 2.5 9.5 2.05228 9.5 1.5V1C9.5 0.447715 9.94771 0 10.5 0Z" fill="white"/>
</svg>
