<svg width="30" height="30" viewBox="0 0 30 30" fill="none" xmlns="http://www.w3.org/2000/svg">
<path d="M15 1.31134e-06C16.1076 1.40817e-06 17.0982 0.689634 17.4825 1.72843L18.3929 4.18853C19.6706 7.64152 20.0781 8.57968 20.7492 9.2508C21.4203 9.92192 22.3585 10.3294 25.8115 11.6071L28.2716 12.5175C29.3104 12.9018 30 13.8924 30 15C30 16.1076 29.3104 17.0982 28.2716 17.4825L25.8115 18.3929C22.3585 19.6706 21.4203 20.0781 20.7492 20.7492C20.0781 21.4203 19.6706 22.3585 18.3929 25.8115L17.4825 28.2716C17.0982 29.3104 16.1076 30 15 30C13.8924 30 12.9018 29.3104 12.5174 28.2716L11.6071 25.8115C10.3294 22.3585 9.92192 21.4203 9.2508 20.7492C8.57968 20.0781 7.64151 19.6706 4.18853 18.3929L1.72843 17.4825C0.689631 17.0982 -1.40817e-06 16.1076 -1.31134e-06 15C-1.21451e-06 13.8924 0.689632 12.9018 1.72843 12.5174L4.18853 11.6071C7.64151 10.3294 8.57968 9.92192 9.2508 9.2508C9.92192 8.57968 10.3294 7.64151 11.6071 4.18853L12.5175 1.72843C12.9018 0.689635 13.8924 1.21451e-06 15 1.31134e-06Z" fill="#1D4ED8"/>
</svg>
